<?xml version="1.0" encoding="UTF-8" standalone="no"?>
<svg
   xmlns:dc="http://purl.org/dc/elements/1.1/"
   xmlns:cc="http://creativecommons.org/ns#"
   xmlns:rdf="http://www.w3.org/1999/02/22-rdf-syntax-ns#"
   xmlns:svg="http://www.w3.org/2000/svg"
   xmlns="http://www.w3.org/2000/svg"
   xmlns:xlink="http://www.w3.org/1999/xlink"
   xmlns:sodipodi="http://sodipodi.sourceforge.net/DTD/sodipodi-0.dtd"
   xmlns:inkscape="http://www.inkscape.org/namespaces/inkscape"
   width="432pt"
   height="288pt"
   viewBox="0 0 432 288"
   version="1.1"
   id="svg351"
   sodipodi:docname="acc.svg"
   inkscape:export-filename="H:\Compositional_encoding\Code\acc.png"
   inkscape:export-xdpi="199.8"
   inkscape:export-ydpi="199.8"
   inkscape:version="0.92.4 (5da689c313, 2019-01-14)">
  <sodipodi:namedview
     pagecolor="#ffffff"
     bordercolor="#666666"
     borderopacity="1"
     objecttolerance="10"
     gridtolerance="10"
     guidetolerance="10"
     inkscape:pageopacity="0"
     inkscape:pageshadow="2"
     inkscape:window-width="1920"
     inkscape:window-height="1017"
     id="namedview353"
     showgrid="false"
     inkscape:zoom="1.3"
     inkscape:cx="-166.57746"
     inkscape:cy="192"
     inkscape:window-x="-8"
     inkscape:window-y="-8"
     inkscape:window-maximized="1"
     inkscape:current-layer="matplotlib.axis_2" />
  <metadata
     id="metadata2">
    <rdf:RDF>
      <cc:Work>
        <dc:type
           rdf:resource="http://purl.org/dc/dcmitype/StillImage" />
        <dc:date>2025-12-18T11:02:39.218125</dc:date>
        <dc:format>image/svg+xml</dc:format>
        <dc:creator>
          <cc:Agent>
            <dc:title>Matplotlib v3.6.0, https://matplotlib.org/</dc:title>
          </cc:Agent>
        </dc:creator>
      </cc:Work>
    </rdf:RDF>
  </metadata>
  <defs
     id="defs6">
    <style
       type="text/css"
       id="style4">*{stroke-linejoin: round; stroke-linecap: butt}</style>
  </defs>
  <g
     id="figure_1">
    <g
       id="patch_1">
      <path
         d="M 0 288  L 432 288  L 432 0  L 0 0  L 0 288  z "
         style="fill: none"
         id="path8" />
    </g>
    <g
       id="axes_1">
      <g
         id="patch_2">
        <path
           d="M 97.01 213.24  L 408.24 213.24  L 408.24 23.76  L 97.01 23.76  z "
           style="fill: #ffffff"
           id="path11" />
      </g>
      <g
         id="line2d_1">
        <path
           d="M 148.881667 50.332614  L 252.625 91.648902  L 356.368333 129.275316  "
           clip-path="url(#ped7ecc8f71)"
           style="fill: none; stroke: #000000; stroke-width: 1.5; stroke-linecap: square"
           id="path14" />
      </g>
      <g
         id="line2d_2">
        <path
           d="M 148.881667 54.36443  L 252.625 89.884802  L 356.368333 133.811961  "
           clip-path="url(#ped7ecc8f71)"
           style="fill: none; stroke: #808080; stroke-width: 1.5; stroke-linecap: square"
           id="path17" />
      </g>
      <g
         id="line2d_3">
        <path
           d="M 148.881667 53.70311  L 252.625 74.505692  L 356.368333 124.004325  "
           clip-path="url(#ped7ecc8f71)"
           style="fill: none; stroke: #808080; stroke-width: 1.5; stroke-linecap: square"
           id="path20" />
      </g>
      <g
         id="line2d_4">
        <path
           d="M 148.881667 38.705518  L 252.625 88.037876  L 356.368333 160.5809  "
           clip-path="url(#ped7ecc8f71)"
           style="fill: none; stroke: #808080; stroke-width: 1.5; stroke-linecap: square"
           id="path23" />
      </g>
      <g
         id="line2d_5">
        <path
           d="M 148.881667 38.241577  L 252.625 32.144071  L 356.368333 66.836778  "
           clip-path="url(#ped7ecc8f71)"
           style="fill: none; stroke: #808080; stroke-width: 1.5; stroke-linecap: square"
           id="path26" />
      </g>
      <g
         id="line2d_6">
        <path
           d="M 148.881667 56.484921  L 252.625 174.180094  L 356.368333 146.348711  "
           clip-path="url(#ped7ecc8f71)"
           style="fill: none; stroke: #808080; stroke-width: 1.5; stroke-linecap: square"
           id="path29" />
      </g>
      <g
         id="line2d_7">
        <path
           d="M 148.881667 42.149371  L 252.625 106.176998  L 356.368333 159.976491  "
           clip-path="url(#ped7ecc8f71)"
           style="fill: none; stroke: #808080; stroke-width: 1.5; stroke-linecap: square"
           id="path32" />
      </g>
      <g
         id="line2d_8">
        <path
           d="M 148.881667 36.973296  L 252.625 108.394988  L 356.368333 111.193881  "
           clip-path="url(#ped7ecc8f71)"
           style="fill: none; stroke: #808080; stroke-width: 1.5; stroke-linecap: square"
           id="path35" />
      </g>
      <g
         id="line2d_9">
        <path
           d="M 148.881667 40.192779  L 252.625 89.634842  L 356.368333 113.405065  "
           clip-path="url(#ped7ecc8f71)"
           style="fill: none; stroke: #808080; stroke-width: 1.5; stroke-linecap: square"
           id="path38" />
      </g>
      <g
         id="line2d_10">
        <path
           d="M 148.881667 57.296283  L 252.625 70.67512  L 356.368333 92.509381  "
           clip-path="url(#ped7ecc8f71)"
           style="fill: none; stroke: #808080; stroke-width: 1.5; stroke-linecap: square"
           id="path41" />
      </g>
      <g
         id="line2d_11">
        <path
           d="M 148.881667 94.590943  L 252.625 111.871838  L 356.368333 199.825487  "
           clip-path="url(#ped7ecc8f71)"
           style="fill: none; stroke: #808080; stroke-width: 1.5; stroke-linecap: square"
           id="path44" />
      </g>
      <g
         id="line2d_12">
        <path
           d="M 148.881667 40.956525  L 252.625 62.631601  L 356.368333 113.5355  "
           clip-path="url(#ped7ecc8f71)"
           style="fill: none; stroke: #808080; stroke-width: 1.5; stroke-linecap: square"
           id="path47" />
      </g>
      <g
         id="PathCollection_1">
        <defs
           id="defs51">
          <path
             id="m74d45def1d"
             d="M 0 3  C 0.795609 3 1.55874 2.683901 2.12132 2.12132  C 2.683901 1.55874 3 0.795609 3 0  C 3 -0.795609 2.683901 -1.55874 2.12132 -2.12132  C 1.55874 -2.683901 0.795609 -3 0 -3  C -0.795609 -3 -1.55874 -2.683901 -2.12132 -2.12132  C -2.683901 -1.55874 -3 -0.795609 -3 0  C -3 0.795609 -2.683901 1.55874 -2.12132 2.12132  C -1.55874 2.683901 -0.795609 3 0 3  z "
             style="stroke: #808080; stroke-opacity: 0.5" />
        </defs>
        <g
           clip-path="url(#ped7ecc8f71)"
           id="g75">
          <use
             xlink:href="#m74d45def1d"
             x="148.881667"
             y="54.36443"
             style="fill: #808080; fill-opacity: 0.5; stroke: #808080; stroke-opacity: 0.5"
             id="use53" />
          <use
             xlink:href="#m74d45def1d"
             x="148.881667"
             y="53.70311"
             style="fill: #808080; fill-opacity: 0.5; stroke: #808080; stroke-opacity: 0.5"
             id="use55" />
          <use
             xlink:href="#m74d45def1d"
             x="148.881667"
             y="38.705518"
             style="fill: #808080; fill-opacity: 0.5; stroke: #808080; stroke-opacity: 0.5"
             id="use57" />
          <use
             xlink:href="#m74d45def1d"
             x="148.881667"
             y="38.241577"
             style="fill: #808080; fill-opacity: 0.5; stroke: #808080; stroke-opacity: 0.5"
             id="use59" />
          <use
             xlink:href="#m74d45def1d"
             x="148.881667"
             y="56.484921"
             style="fill: #808080; fill-opacity: 0.5; stroke: #808080; stroke-opacity: 0.5"
             id="use61" />
          <use
             xlink:href="#m74d45def1d"
             x="148.881667"
             y="42.149371"
             style="fill: #808080; fill-opacity: 0.5; stroke: #808080; stroke-opacity: 0.5"
             id="use63" />
          <use
             xlink:href="#m74d45def1d"
             x="148.881667"
             y="36.973296"
             style="fill: #808080; fill-opacity: 0.5; stroke: #808080; stroke-opacity: 0.5"
             id="use65" />
          <use
             xlink:href="#m74d45def1d"
             x="148.881667"
             y="40.192779"
             style="fill: #808080; fill-opacity: 0.5; stroke: #808080; stroke-opacity: 0.5"
             id="use67" />
          <use
             xlink:href="#m74d45def1d"
             x="148.881667"
             y="57.296283"
             style="fill: #808080; fill-opacity: 0.5; stroke: #808080; stroke-opacity: 0.5"
             id="use69" />
          <use
             xlink:href="#m74d45def1d"
             x="148.881667"
             y="94.590943"
             style="fill: #808080; fill-opacity: 0.5; stroke: #808080; stroke-opacity: 0.5"
             id="use71" />
          <use
             xlink:href="#m74d45def1d"
             x="148.881667"
             y="40.956525"
             style="fill: #808080; fill-opacity: 0.5; stroke: #808080; stroke-opacity: 0.5"
             id="use73" />
        </g>
      </g>
      <g
         id="PathCollection_2">
        <defs
           id="defs79">
          <path
             id="md5673aa148"
             d="M 0 -7.905694  L -1.774939 -2.442994  L -7.518762 -2.442994  L -2.871911 0.933141  L -4.64685 6.395841  L -0 3.019706  L 4.64685 6.395841  L 2.871911 0.933141  L 7.518762 -2.442994  L 1.774939 -2.442994  z "
             style="stroke: #0000ff" />
        </defs>
        <g
           clip-path="url(#ped7ecc8f71)"
           id="g83">
          <use
             xlink:href="#md5673aa148"
             x="148.881667"
             y="50.332614"
             style="fill: #0000ff; stroke: #0000ff"
             id="use81" />
        </g>
      </g>
      <g
         id="PathCollection_3">
        <g
           clip-path="url(#ped7ecc8f71)"
           id="g108">
          <use
             xlink:href="#m74d45def1d"
             x="252.625"
             y="89.884802"
             style="fill: #808080; fill-opacity: 0.5; stroke: #808080; stroke-opacity: 0.5"
             id="use86" />
          <use
             xlink:href="#m74d45def1d"
             x="252.625"
             y="74.505692"
             style="fill: #808080; fill-opacity: 0.5; stroke: #808080; stroke-opacity: 0.5"
             id="use88" />
          <use
             xlink:href="#m74d45def1d"
             x="252.625"
             y="88.037876"
             style="fill: #808080; fill-opacity: 0.5; stroke: #808080; stroke-opacity: 0.5"
             id="use90" />
          <use
             xlink:href="#m74d45def1d"
             x="252.625"
             y="32.144071"
             style="fill: #808080; fill-opacity: 0.5; stroke: #808080; stroke-opacity: 0.5"
             id="use92" />
          <use
             xlink:href="#m74d45def1d"
             x="252.625"
             y="174.180094"
             style="fill: #808080; fill-opacity: 0.5; stroke: #808080; stroke-opacity: 0.5"
             id="use94" />
          <use
             xlink:href="#m74d45def1d"
             x="252.625"
             y="106.176998"
             style="fill: #808080; fill-opacity: 0.5; stroke: #808080; stroke-opacity: 0.5"
             id="use96" />
          <use
             xlink:href="#m74d45def1d"
             x="252.625"
             y="108.394988"
             style="fill: #808080; fill-opacity: 0.5; stroke: #808080; stroke-opacity: 0.5"
             id="use98" />
          <use
             xlink:href="#m74d45def1d"
             x="252.625"
             y="89.634842"
             style="fill: #808080; fill-opacity: 0.5; stroke: #808080; stroke-opacity: 0.5"
             id="use100" />
          <use
             xlink:href="#m74d45def1d"
             x="252.625"
             y="70.67512"
             style="fill: #808080; fill-opacity: 0.5; stroke: #808080; stroke-opacity: 0.5"
             id="use102" />
          <use
             xlink:href="#m74d45def1d"
             x="252.625"
             y="111.871838"
             style="fill: #808080; fill-opacity: 0.5; stroke: #808080; stroke-opacity: 0.5"
             id="use104" />
          <use
             xlink:href="#m74d45def1d"
             x="252.625"
             y="62.631601"
             style="fill: #808080; fill-opacity: 0.5; stroke: #808080; stroke-opacity: 0.5"
             id="use106" />
        </g>
      </g>
      <g
         id="PathCollection_4">
        <defs
           id="defs112">
          <path
             id="ma0c797422a"
             d="M 0 -7.905694  L -1.774939 -2.442994  L -7.518762 -2.442994  L -2.871911 0.933141  L -4.64685 6.395841  L -0 3.019706  L 4.64685 6.395841  L 2.871911 0.933141  L 7.518762 -2.442994  L 1.774939 -2.442994  z "
             style="stroke: #008000" />
        </defs>
        <g
           clip-path="url(#ped7ecc8f71)"
           id="g116">
          <use
             xlink:href="#ma0c797422a"
             x="252.625"
             y="91.648902"
             style="fill: #008000; stroke: #008000"
             id="use114" />
        </g>
      </g>
      <g
         id="PathCollection_5">
        <g
           clip-path="url(#ped7ecc8f71)"
           id="g141">
          <use
             xlink:href="#m74d45def1d"
             x="356.368333"
             y="133.811961"
             style="fill: #808080; fill-opacity: 0.5; stroke: #808080; stroke-opacity: 0.5"
             id="use119" />
          <use
             xlink:href="#m74d45def1d"
             x="356.368333"
             y="124.004325"
             style="fill: #808080; fill-opacity: 0.5; stroke: #808080; stroke-opacity: 0.5"
             id="use121" />
          <use
             xlink:href="#m74d45def1d"
             x="356.368333"
             y="160.5809"
             style="fill: #808080; fill-opacity: 0.5; stroke: #808080; stroke-opacity: 0.5"
             id="use123" />
          <use
             xlink:href="#m74d45def1d"
             x="356.368333"
             y="66.836778"
             style="fill: #808080; fill-opacity: 0.5; stroke: #808080; stroke-opacity: 0.5"
             id="use125" />
          <use
             xlink:href="#m74d45def1d"
             x="356.368333"
             y="146.348711"
             style="fill: #808080; fill-opacity: 0.5; stroke: #808080; stroke-opacity: 0.5"
             id="use127" />
          <use
             xlink:href="#m74d45def1d"
             x="356.368333"
             y="159.976491"
             style="fill: #808080; fill-opacity: 0.5; stroke: #808080; stroke-opacity: 0.5"
             id="use129" />
          <use
             xlink:href="#m74d45def1d"
             x="356.368333"
             y="111.193881"
             style="fill: #808080; fill-opacity: 0.5; stroke: #808080; stroke-opacity: 0.5"
             id="use131" />
          <use
             xlink:href="#m74d45def1d"
             x="356.368333"
             y="113.405065"
             style="fill: #808080; fill-opacity: 0.5; stroke: #808080; stroke-opacity: 0.5"
             id="use133" />
          <use
             xlink:href="#m74d45def1d"
             x="356.368333"
             y="92.509381"
             style="fill: #808080; fill-opacity: 0.5; stroke: #808080; stroke-opacity: 0.5"
             id="use135" />
          <use
             xlink:href="#m74d45def1d"
             x="356.368333"
             y="199.825487"
             style="fill: #808080; fill-opacity: 0.5; stroke: #808080; stroke-opacity: 0.5"
             id="use137" />
          <use
             xlink:href="#m74d45def1d"
             x="356.368333"
             y="113.5355"
             style="fill: #808080; fill-opacity: 0.5; stroke: #808080; stroke-opacity: 0.5"
             id="use139" />
        </g>
      </g>
      <g
         id="PathCollection_6">
        <defs
           id="defs145">
          <path
             id="m5068e94a59"
             d="M 0 -7.905694  L -1.774939 -2.442994  L -7.518762 -2.442994  L -2.871911 0.933141  L -4.64685 6.395841  L -0 3.019706  L 4.64685 6.395841  L 2.871911 0.933141  L 7.518762 -2.442994  L 1.774939 -2.442994  z "
             style="stroke: #ff0000" />
        </defs>
        <g
           clip-path="url(#ped7ecc8f71)"
           id="g149">
          <use
             xlink:href="#m5068e94a59"
             x="356.368333"
             y="129.275316"
             style="fill: #ff0000; stroke: #ff0000"
             id="use147" />
        </g>
      </g>
      <g
         id="matplotlib.axis_1">
        <g
           id="xtick_1">
          <g
             id="line2d_13">
            <defs
               id="defs153">
              <path
                 id="m21e7b67424"
                 d="M 0 0  L 0 3.5  "
                 style="stroke: #000000; stroke-width: 0.8" />
            </defs>
            <g
               id="g157">
              <use
                 xlink:href="#m21e7b67424"
                 x="148.881667"
                 y="213.24"
                 style="stroke: #000000; stroke-width: 0.8"
                 id="use155" />
            </g>
          </g>
          <g
             id="text_1">
            <!-- 4 -->
            <g
               transform="translate(141.882917 236.956563) scale(0.22 -0.22)"
               id="g165">
              <defs
                 id="defs161">
                <path
                   id="DejaVuSans-34"
                   d="M 2419 4116  L 825 1625  L 2419 1625  L 2419 4116  z M 2253 4666  L 3047 4666  L 3047 1625  L 3713 1625  L 3713 1100  L 3047 1100  L 3047 0  L 2419 0  L 2419 1100  L 313 1100  L 313 1709  L 2253 4666  z "
                   transform="scale(0.015625)" />
              </defs>
              <use
                 xlink:href="#DejaVuSans-34"
                 id="use163" />
            </g>
          </g>
        </g>
        <g
           id="xtick_2">
          <g
             id="line2d_14">
            <g
               id="g171">
              <use
                 xlink:href="#m21e7b67424"
                 x="252.625"
                 y="213.24"
                 style="stroke: #000000; stroke-width: 0.8"
                 id="use169" />
            </g>
          </g>
          <g
             id="text_2">
            <!-- 6 -->
            <g
               transform="translate(245.62625 236.956563) scale(0.22 -0.22)"
               id="g179">
              <defs
                 id="defs175">
                <path
                   id="DejaVuSans-36"
                   d="M 2113 2584  Q 1688 2584 1439 2293  Q 1191 2003 1191 1497  Q 1191 994 1439 701  Q 1688 409 2113 409  Q 2538 409 2786 701  Q 3034 994 3034 1497  Q 3034 2003 2786 2293  Q 2538 2584 2113 2584  z M 3366 4563  L 3366 3988  Q 3128 4100 2886 4159  Q 2644 4219 2406 4219  Q 1781 4219 1451 3797  Q 1122 3375 1075 2522  Q 1259 2794 1537 2939  Q 1816 3084 2150 3084  Q 2853 3084 3261 2657  Q 3669 2231 3669 1497  Q 3669 778 3244 343  Q 2819 -91 2113 -91  Q 1303 -91 875 529  Q 447 1150 447 2328  Q 447 3434 972 4092  Q 1497 4750 2381 4750  Q 2619 4750 2861 4703  Q 3103 4656 3366 4563  z "
                   transform="scale(0.015625)" />
              </defs>
              <use
                 xlink:href="#DejaVuSans-36"
                 id="use177" />
            </g>
          </g>
        </g>
        <g
           id="xtick_3">
          <g
             id="line2d_15">
            <g
               id="g185">
              <use
                 xlink:href="#m21e7b67424"
                 x="356.368333"
                 y="213.24"
                 style="stroke: #000000; stroke-width: 0.8"
                 id="use183" />
            </g>
          </g>
          <g
             id="text_3">
            <!-- 8 -->
            <g
               transform="translate(349.369583 236.956563) scale(0.22 -0.22)"
               id="g193">
              <defs
                 id="defs189">
                <path
                   id="DejaVuSans-38"
                   d="M 2034 2216  Q 1584 2216 1326 1975  Q 1069 1734 1069 1313  Q 1069 891 1326 650  Q 1584 409 2034 409  Q 2484 409 2743 651  Q 3003 894 3003 1313  Q 3003 1734 2745 1975  Q 2488 2216 2034 2216  z M 1403 2484  Q 997 2584 770 2862  Q 544 3141 544 3541  Q 544 4100 942 4425  Q 1341 4750 2034 4750  Q 2731 4750 3128 4425  Q 3525 4100 3525 3541  Q 3525 3141 3298 2862  Q 3072 2584 2669 2484  Q 3125 2378 3379 2068  Q 3634 1759 3634 1313  Q 3634 634 3220 271  Q 2806 -91 2034 -91  Q 1263 -91 848 271  Q 434 634 434 1313  Q 434 1759 690 2068  Q 947 2378 1403 2484  z M 1172 3481  Q 1172 3119 1398 2916  Q 1625 2713 2034 2713  Q 2441 2713 2670 2916  Q 2900 3119 2900 3481  Q 2900 3844 2670 4047  Q 2441 4250 2034 4250  Q 1625 4250 1398 4047  Q 1172 3844 1172 3481  z "
                   transform="scale(0.015625)" />
              </defs>
              <use
                 xlink:href="#DejaVuSans-38"
                 id="use191" />
            </g>
          </g>
        </g>
        <g
           id="text_4">
          <!-- Set Size -->
          <g
             transform="translate(208.484063 262.248438) scale(0.22 -0.22)"
             id="g221">
            <defs
               id="defs203">
              <path
                 id="DejaVuSans-53"
                 d="M 3425 4513  L 3425 3897  Q 3066 4069 2747 4153  Q 2428 4238 2131 4238  Q 1616 4238 1336 4038  Q 1056 3838 1056 3469  Q 1056 3159 1242 3001  Q 1428 2844 1947 2747  L 2328 2669  Q 3034 2534 3370 2195  Q 3706 1856 3706 1288  Q 3706 609 3251 259  Q 2797 -91 1919 -91  Q 1588 -91 1214 -16  Q 841 59 441 206  L 441 856  Q 825 641 1194 531  Q 1563 422 1919 422  Q 2459 422 2753 634  Q 3047 847 3047 1241  Q 3047 1584 2836 1778  Q 2625 1972 2144 2069  L 1759 2144  Q 1053 2284 737 2584  Q 422 2884 422 3419  Q 422 4038 858 4394  Q 1294 4750 2059 4750  Q 2388 4750 2728 4690  Q 3069 4631 3425 4513  z "
                 transform="scale(0.015625)" />
              <path
                 id="DejaVuSans-65"
                 d="M 3597 1894  L 3597 1613  L 953 1613  Q 991 1019 1311 708  Q 1631 397 2203 397  Q 2534 397 2845 478  Q 3156 559 3463 722  L 3463 178  Q 3153 47 2828 -22  Q 2503 -91 2169 -91  Q 1331 -91 842 396  Q 353 884 353 1716  Q 353 2575 817 3079  Q 1281 3584 2069 3584  Q 2775 3584 3186 3129  Q 3597 2675 3597 1894  z M 3022 2063  Q 3016 2534 2758 2815  Q 2500 3097 2075 3097  Q 1594 3097 1305 2825  Q 1016 2553 972 2059  L 3022 2063  z "
                 transform="scale(0.015625)" />
              <path
                 id="DejaVuSans-74"
                 d="M 1172 4494  L 1172 3500  L 2356 3500  L 2356 3053  L 1172 3053  L 1172 1153  Q 1172 725 1289 603  Q 1406 481 1766 481  L 2356 481  L 2356 0  L 1766 0  Q 1100 0 847 248  Q 594 497 594 1153  L 594 3053  L 172 3053  L 172 3500  L 594 3500  L 594 4494  L 1172 4494  z "
                 transform="scale(0.015625)" />
              <path
                 id="DejaVuSans-20"
                 transform="scale(0.015625)" />
              <path
                 id="DejaVuSans-69"
                 d="M 603 3500  L 1178 3500  L 1178 0  L 603 0  L 603 3500  z M 603 4863  L 1178 4863  L 1178 4134  L 603 4134  L 603 4863  z "
                 transform="scale(0.015625)" />
              <path
                 id="DejaVuSans-7a"
                 d="M 353 3500  L 3084 3500  L 3084 2975  L 922 459  L 3084 459  L 3084 0  L 275 0  L 275 525  L 2438 3041  L 353 3041  L 353 3500  z "
                 transform="scale(0.015625)" />
            </defs>
            <use
               xlink:href="#DejaVuSans-53"
               id="use205" />
            <use
               xlink:href="#DejaVuSans-65"
               x="63.476562"
               id="use207" />
            <use
               xlink:href="#DejaVuSans-74"
               x="125"
               id="use209" />
            <use
               xlink:href="#DejaVuSans-20"
               x="164.208984"
               id="use211" />
            <use
               xlink:href="#DejaVuSans-53"
               x="195.996094"
               id="use213" />
            <use
               xlink:href="#DejaVuSans-69"
               x="259.472656"
               id="use215" />
            <use
               xlink:href="#DejaVuSans-7a"
               x="287.255859"
               id="use217" />
            <use
               xlink:href="#DejaVuSans-65"
               x="339.746094"
               id="use219" />
          </g>
        </g>
      </g>
      <g
         id="matplotlib.axis_2">
        <g
           id="ytick_1">
          <g
             id="line2d_16">
            <defs
               id="defs226">
              <path
                 id="mf7e8fc8f6c"
                 d="M 0 0  L -3.5 0  "
                 style="stroke: #000000; stroke-width: 0.8" />
            </defs>
            <g
               id="g230">
              <use
                 xlink:href="#mf7e8fc8f6c"
                 x="97.01"
                 y="213.24"
                 style="stroke: #000000; stroke-width: 0.8"
                 id="use228" />
            </g>
          </g>
          <g
             id="text_5">
            <!-- 70 -->
            <g
               transform="translate(62.015 221.598281) scale(0.22 -0.22)"
               id="g241">
              <defs
                 id="defs235">
                <path
                   id="DejaVuSans-37"
                   d="M 525 4666  L 3525 4666  L 3525 4397  L 1831 0  L 1172 0  L 2766 4134  L 525 4134  L 525 4666  z "
                   transform="scale(0.015625)" />
                <path
                   id="DejaVuSans-30"
                   d="M 2034 4250  Q 1547 4250 1301 3770  Q 1056 3291 1056 2328  Q 1056 1369 1301 889  Q 1547 409 2034 409  Q 2525 409 2770 889  Q 3016 1369 3016 2328  Q 3016 3291 2770 3770  Q 2525 4250 2034 4250  z M 2034 4750  Q 2819 4750 3233 4129  Q 3647 3509 3647 2328  Q 3647 1150 3233 529  Q 2819 -91 2034 -91  Q 1250 -91 836 529  Q 422 1150 422 2328  Q 422 3509 836 4129  Q 1250 4750 2034 4750  z "
                   transform="scale(0.015625)" />
              </defs>
              <use
                 xlink:href="#DejaVuSans-37"
                 id="use237" />
              <use
                 xlink:href="#DejaVuSans-30"
                 x="63.623047"
                 id="use239" />
            </g>
          </g>
        </g>
        <g
           id="ytick_2">
          <g
             id="line2d_17">
            <g
               id="g247">
              <use
                 xlink:href="#mf7e8fc8f6c"
                 x="97.01"
                 y="152.87469"
                 style="stroke: #000000; stroke-width: 0.8"
                 id="use245" />
            </g>
          </g>
          <g
             id="text_6">
            <!-- 80 -->
            <g
               transform="translate(62.015 161.232972) scale(0.22 -0.22)"
               id="g254">
              <use
                 xlink:href="#DejaVuSans-38"
                 id="use250" />
              <use
                 xlink:href="#DejaVuSans-30"
                 x="63.623047"
                 id="use252" />
            </g>
          </g>
        </g>
        <g
           id="ytick_3">
          <g
             id="line2d_18">
            <g
               id="g260">
              <use
                 xlink:href="#mf7e8fc8f6c"
                 x="97.01"
                 y="92.509381"
                 style="stroke: #000000; stroke-width: 0.8"
                 id="use258" />
            </g>
          </g>
          <g
             id="text_7">
            <!-- 90 -->
            <g
               transform="translate(62.015 100.867662) scale(0.22 -0.22)"
               id="g270">
              <defs
                 id="defs264">
                <path
                   id="DejaVuSans-39"
                   d="M 703 97  L 703 672  Q 941 559 1184 500  Q 1428 441 1663 441  Q 2288 441 2617 861  Q 2947 1281 2994 2138  Q 2813 1869 2534 1725  Q 2256 1581 1919 1581  Q 1219 1581 811 2004  Q 403 2428 403 3163  Q 403 3881 828 4315  Q 1253 4750 1959 4750  Q 2769 4750 3195 4129  Q 3622 3509 3622 2328  Q 3622 1225 3098 567  Q 2575 -91 1691 -91  Q 1453 -91 1209 -44  Q 966 3 703 97  z M 1959 2075  Q 2384 2075 2632 2365  Q 2881 2656 2881 3163  Q 2881 3666 2632 3958  Q 2384 4250 1959 4250  Q 1534 4250 1286 3958  Q 1038 3666 1038 3163  Q 1038 2656 1286 2365  Q 1534 2075 1959 2075  z "
                   transform="scale(0.015625)" />
              </defs>
              <use
                 xlink:href="#DejaVuSans-39"
                 id="use266" />
              <use
                 xlink:href="#DejaVuSans-30"
                 x="63.623047"
                 id="use268" />
            </g>
          </g>
        </g>
        <g
           id="ytick_4">
          <g
             id="line2d_19">
            <g
               id="g276">
              <use
                 xlink:href="#mf7e8fc8f6c"
                 x="97.01"
                 y="32.144071"
                 style="stroke: #000000; stroke-width: 0.8"
                 id="use274" />
            </g>
          </g>
          <g
             id="text_8">
            <!-- 100 -->
            <g
               transform="translate(48.0175 40.502352) scale(0.22 -0.22)"
               id="g288">
              <defs
                 id="defs280">
                <path
                   id="DejaVuSans-31"
                   d="M 794 531  L 1825 531  L 1825 4091  L 703 3866  L 703 4441  L 1819 4666  L 2450 4666  L 2450 531  L 3481 531  L 3481 0  L 794 0  L 794 531  z "
                   transform="scale(0.015625)" />
              </defs>
              <use
                 xlink:href="#DejaVuSans-31"
                 id="use282" />
              <use
                 xlink:href="#DejaVuSans-30"
                 x="63.623047"
                 id="use284" />
              <use
                 xlink:href="#DejaVuSans-30"
                 x="127.246094"
                 id="use286" />
            </g>
          </g>
        </g>
        <flowRoot
           xml:space="preserve"
           id="flowRoot1022"
           style="font-style:normal;font-weight:normal;font-size:40px;line-height:1.25;font-family:sans-serif;letter-spacing:0px;word-spacing:0px;fill:#000000;fill-opacity:1;stroke:none;stroke-linecap:butt;stroke-linejoin:round"
           transform="matrix(-0.00431674,-0.74998758,0.74998758,-0.00431674,-538.51643,-125.68468)"
           inkscape:export-xdpi="199.8"
           inkscape:export-ydpi="199.8"><flowRegion
             id="flowRegion1024"
             style="stroke-linecap:butt;stroke-linejoin:round"><rect
               id="rect1026"
               width="356.95773"
               height="79.098572"
               x="-474.59155"
               y="716.61969"
               style="stroke-linecap:butt;stroke-linejoin:round" /></flowRegion><flowPara
             id="flowPara1028"
             style="font-size:32px;stroke-linecap:butt;stroke-linejoin:round">Success rate (%)</flowPara></flowRoot>      </g>
      <g
         id="patch_3">
        <path
           d="M 97.01 213.24  L 97.01 23.76  "
           style="fill: none; stroke: #000000; stroke-width: 0.8; stroke-linejoin: miter; stroke-linecap: square"
           id="path338" />
      </g>
      <g
         id="patch_4">
        <path
           d="M 97.01 213.24  L 408.24 213.24  "
           style="fill: none; stroke: #000000; stroke-width: 0.8; stroke-linejoin: miter; stroke-linecap: square"
           id="path341" />
      </g>
    </g>
  </g>
  <defs
     id="defs349">
    <clipPath
       id="ped7ecc8f71">
      <rect
         x="97.01"
         y="23.76"
         width="311.23"
         height="189.48"
         id="rect346" />
    </clipPath>
  </defs>
</svg>
